<?xml version="1.0" standalone="no"?>
<!DOCTYPE svg PUBLIC "-//W3C//DTD SVG 20010904//EN"
 "http://www.w3.org/TR/2001/REC-SVG-20010904/DTD/svg10.dtd">
<svg version="1.0" xmlns="http://www.w3.org/2000/svg"
 width="500.000000pt" height="500.000000pt" viewBox="0 0 500.000000 500.000000"
 preserveAspectRatio="xMidYMid meet">
<metadata>
Created by potrace 1.11, written by Peter Selinger 2001-2013
</metadata>
<g transform="translate(0.000000,500.000000) scale(0.100000,-0.100000)"
fill="#000000" stroke="none">
<path d="M0 2500 l0 -2500 2500 0 2500 0 0 2500 0 2500 -2500 0 -2500 0 0
-2500z m1785 1526 c18 -8 39 -25 47 -38 10 -18 14 -166 18 -722 l5 -699 575
709 c519 640 580 711 625 734 45 22 64 25 193 28 100 3 153 0 174 -9 37 -15
62 -67 49 -101 -5 -13 -235 -288 -511 -612 -276 -324 -504 -595 -507 -602 -3
-7 240 -367 539 -800 298 -433 551 -801 560 -818 32 -58 19 -107 -33 -125 -41
-14 -243 -14 -308 0 -28 6 -60 19 -73 29 -13 9 -232 326 -488 704 -256 377
-468 686 -472 686 -4 0 -79 -85 -167 -189 l-161 -189 0 -482 c0 -534 1 -528
-65 -556 -46 -19 -224 -19 -269 0 -72 30 -66 -102 -66 1526 0 1623 -5 1496 64
1526 43 18 226 19 271 0z"/>
</g>
</svg>
